<?xml version="1.0" encoding="UTF-8"?>
<svg width="1920px" height="30px" viewBox="0 0 1920 30" version="1.1" xmlns="http://www.w3.org/2000/svg" xmlns:xlink="http://www.w3.org/1999/xlink">
    <title>Untitled 3</title>
    <g id="Page-1" stroke="none" stroke-width="1" fill="none" fill-rule="evenodd">
        <g id="nomination-top-border" fill="#F0F0F0">
            <path d="M420,10 L420,0 L360,0 L360,10 L0,10 L0,30 L1140,30 L1140,20 L1080,20 L1080,10 L779,10 L779,20 L720,20 L720,10 L420,10 Z M1200,30 L1920,30 L1920,10 L1560,10 L1560,0 L1500,0 L1500,10 L1500,20 L1440,20 L1440,10 L1320,10 L1320,0 L1260,0 L1260,10 L1200,10 L1200,20 L1200,30 Z" id="Shape"></path>
        </g>
    </g>
</svg>
